<?xml version="1.0" standalone="no"?>
<!DOCTYPE svg PUBLIC "-//W3C//DTD SVG 20010904//EN"
 "http://www.w3.org/TR/2001/REC-SVG-20010904/DTD/svg10.dtd">
<svg version="1.0" xmlns="http://www.w3.org/2000/svg"
 width="300.000000pt" height="300.000000pt" viewBox="0 0 300.000000 300.000000"
 preserveAspectRatio="xMidYMid meet">
<metadata>
Created by potrace 1.10, written by Peter Selinger 2001-2011
</metadata>
<g transform="translate(0.000000,300.000000) scale(0.100000,-0.100000)"
fill="#000000" stroke="none">
<path d="M1315 2880 c-1020 -150 -1537 -1292 -972 -2147 404 -611 1219 -803
1852 -436 728 422 918 1384 404 2053 -191 249 -456 420 -778 502 -99 25 -140
30 -281 33 -91 2 -192 0 -225 -5z m485 -64 c443 -104 787 -398 952 -811 69
-172 96 -314 96 -505 0 -210 -39 -388 -127 -574 -140 -298 -353 -510 -652
-650 -294 -138 -630 -163 -954 -71 -117 33 -312 130 -417 207 -264 195 -452
489 -524 818 -28 128 -27 420 3 551 118 527 523 931 1039 1038 143 30 144 30
319 26 127 -3 182 -9 265 -29z"/>
<path d="M2214 2409 c-85 -8 -166 -43 -253 -108 -41 -31 -80 -60 -86 -65 -9
-6 -28 2 -61 26 -51 36 -135 78 -157 78 -7 0 -17 4 -23 9 -44 40 -416 42 -509
2 -11 -5 -45 -19 -77 -31 -142 -54 -294 -205 -367 -365 -56 -120 -71 -190 -72
-325 -1 -290 165 -551 426 -671 28 -12 52 -24 55 -26 2 -2 7 -39 11 -82 12
-137 64 -199 175 -206 51 -3 112 9 124 25 19 26 45 27 80 4 64 -43 194 -41
243 3 16 15 21 15 64 -7 115 -57 231 -25 281 80 15 31 17 82 15 500 -1 256 -5
488 -9 515 -4 28 -8 68 -8 90 -1 37 1 40 34 46 64 13 89 24 142 62 111 81 184
209 180 315 -4 106 -67 145 -208 131z m132 -24 c103 -43 72 -229 -62 -362 -61
-61 -134 -99 -210 -109 l-52 -6 14 -42 c27 -84 34 -206 34 -635 0 -433 0 -437
-22 -481 -33 -63 -66 -83 -141 -88 -70 -4 -119 16 -146 58 l-16 25 33 -27 c87
-72 219 -52 260 40 15 33 16 84 14 512 -3 374 -7 491 -19 550 -8 41 -15 79
-16 84 -1 5 14 13 33 18 108 28 144 42 188 77 92 73 152 180 152 270 0 97 -63
132 -193 107 -93 -18 -153 -48 -251 -126 -41 -33 -80 -60 -84 -60 -5 0 -27 14
-48 31 -110 88 -251 130 -434 131 -227 0 -376 -57 -521 -202 -77 -76 -139
-166 -139 -200 0 -6 -9 -23 -20 -38 -57 -77 -77 -310 -41 -454 55 -212 222
-407 409 -477 l59 -22 5 -88 c7 -125 35 -168 120 -191 52 -15 113 2 154 41
l33 32 40 -36 c65 -59 179 -59 238 -1 19 19 24 21 21 7 -2 -9 -19 -28 -38 -41
-31 -21 -43 -23 -114 -20 -77 5 -80 6 -114 43 -26 29 -36 34 -43 24 -5 -8 -9
-17 -9 -21 0 -17 -82 -48 -125 -48 -119 0 -175 68 -175 215 l0 71 -51 19 c-76
27 -190 107 -256 179 -141 154 -214 387 -184 584 40 258 211 486 434 581 127
54 336 72 492 42 85 -16 217 -75 268 -120 l37 -33 60 49 c156 127 322 182 426
138z m7 -44 c27 -27 24 -108 -6 -174 -32 -69 -108 -152 -171 -185 l-51 -27
-290 -5 c-159 -3 -291 -5 -293 -4 -2 1 22 14 53 28 82 37 174 101 305 212 72
60 142 110 187 131 112 54 225 64 266 24z m-733 -41 c81 -27 112 -43 173 -88
l49 -35 -29 -24 c-64 -54 -210 -144 -276 -171 l-72 -30 -367 -4 -368 -5 27 51
c15 28 66 89 113 136 90 91 155 131 270 170 124 42 354 42 480 0z m374 -398
c2 -4 11 -41 19 -82 23 -113 29 -1012 7 -1054 -25 -49 -64 -71 -125 -71 -69 0
-105 25 -125 88 -18 57 -35 60 -44 8 -9 -60 -41 -90 -102 -98 -93 -10 -148 23
-163 100 -9 40 -33 42 -41 2 -10 -49 -30 -76 -65 -91 -77 -32 -156 -6 -186 60
-16 35 -19 67 -19 217 0 182 -8 232 -40 249 -29 16 -80 12 -80 -5 0 -10 10
-15 29 -15 45 0 55 -22 59 -131 3 -55 1 -99 -3 -99 -4 0 -44 19 -88 42 -118
61 -238 182 -295 298 -59 121 -75 199 -69 340 3 80 11 136 26 183 l22 67 639
0 c351 0 641 -3 644 -8z"/>
<path d="M1398 1724 c-61 -32 -91 -144 -64 -237 37 -127 155 -147 207 -33 40
88 18 214 -47 265 -31 25 -58 26 -96 5z m93 -46 c29 -32 39 -61 39 -121 0 -62
-25 -116 -62 -137 -25 -13 -30 -13 -55 2 -63 38 -77 165 -28 240 30 46 71 52
106 16z"/>
<path d="M1798 1724 c-35 -18 -67 -81 -75 -142 -16 -142 98 -254 181 -177 79
73 74 248 -9 313 -32 25 -59 27 -97 6z m92 -46 c34 -37 48 -108 34 -177 -8
-39 -55 -91 -82 -91 -56 0 -107 121 -84 199 26 86 87 117 132 69z"/>
<path d="M1626 1169 c-25 -49 -46 -97 -46 -105 0 -26 37 -15 68 20 l30 34 31
-45 c27 -38 34 -43 47 -32 23 19 10 72 -37 152 -22 37 -41 67 -43 67 -2 0 -24
-41 -50 -91z m79 -19 c15 -29 15 -29 -13 -21 -15 4 -33 6 -40 3 -10 -3 -10 3
3 27 18 35 28 33 50 -9z"/>
</g>
</svg>
